<?xml version="1.0" encoding="UTF-8"?>
<svg width="255px" height="72px" viewBox="0 0 255 72" version="1.1" xmlns="http://www.w3.org/2000/svg" xmlns:xlink="http://www.w3.org/1999/xlink">
    <title>ths_light</title>
    <g id="日间" stroke="none" stroke-width="1" fill="none" fill-rule="evenodd">
        <g id="缺省" transform="translate(-2493.000000, -2130.000000)" fill="#282828">
            <g id="创作者-单图" transform="translate(2277.000000, 1968.000000)">
                <g id="ths_light" transform="translate(216.000000, 162.000000)">
                    <path d="M65.3814889,22.2060668 L66.1403137,16.6976814 C66.3039818,15.4403325 65.6344305,15.0212162 64.295328,15.0212162 L24.7025294,15.0212162 C23.3634269,15.0212162 22.6046021,15.4403325 22.440934,16.6976814 L21.6821093,22.2060668 C21.5184412,23.5532263 22.3516605,23.9723426 23.527095,23.9723426 L63.1198935,23.9723426 C64.295328,24.0022795 65.2178208,23.5532263 65.3814889,22.2060668 Z M74.6956911,0.0827143873 L17.8879854,0.0827143873 C13.1409234,0.0547156862 9.0665906,3.4767467 8.24644708,8.18063974 L0.0332848149,69.8955126 C-0.130383274,71.0780193 0.286226406,71.9162518 1.80387596,71.9162518 L7.9191109,71.9162518 C9.40700262,71.9162518 10.0170382,71.1678299 10.2699798,69.805702 L18.1558059,10.4259055 C18.2570729,9.54922633 19.0385518,8.9162841 19.9115181,9.00390387 L70.3212894,9.00390387 C71.3330558,9.00390387 71.660392,9.49786234 71.8091811,10.0965999 L64.9648792,59.9265324 L65.0541527,59.9265324 L63.7001713,69.9254495 C63.5365032,71.1079561 63.9531129,71.9461887 65.4707624,71.9461887 L71.5859974,71.9461887 C72.1735132,72.0066791 72.7584717,71.8097404 73.1914511,71.4056784 C73.6244306,71.0016164 73.8635005,70.4295613 73.8475928,69.8356388 L75.2015742,59.9265324 L75.3652423,58.7440257 L81.4804773,13.1950667 L81.9119659,10.201379 L82.1500285,8.18063974 L82.1500285,6.83348025 C81.9863605,3.21111808 79.38255,0.17252502 74.6956911,0.0527775099 L74.6956911,0.0827143873 Z M57.5849363,28.522748 L26.8897303,28.522748 C24.8489848,28.3408588 23.0462292,29.8533093 22.8575437,31.9056151 L22.1879924,36.8002946 L17.8879854,68.9075956 L48.5087969,68.9075956 C52.2731629,68.9075956 54.6240318,67.9795524 55.3828566,66.123466 C55.9961853,64.7808748 56.445819,63.3685721 56.7219591,61.9173348 L60.7392668,32.414542 L60.8285403,31.9056151 C61.0368451,29.8399706 60.1887468,28.5826217 57.5849363,28.4928111 L57.5849363,28.522748 Z M47.1696943,56.9627815 C47.1308127,57.8710593 46.7722012,58.7358442 46.157928,59.4026371 C45.4677206,59.8719824 44.6361153,60.0837821 43.8070591,60.0013746 L29.0471733,60.0013746 L32.1568669,37.4439374 L49.7735048,37.4439374 L47.1696943,56.9627815 Z M243.928495,62.950157 L242.440603,62.950157 L242.440603,62.9202202 C241.37845,62.9627511 240.32048,62.7631882 239.345788,62.336451 C236.741978,61.1539444 234.227441,55.9598961 232.635397,53.5948828 C233.885226,43.7306817 234.986265,36.8751368 236.236095,27.1007463 C236.399763,25.9930818 235.983153,25.4093127 234.748203,25.4093127 L229.629855,25.4093127 C228.862553,25.3153378 228.133097,25.7693261 227.874143,26.5020087 C227.801213,26.6960382 227.746419,26.8964845 227.710475,27.1007463 C226.371372,36.8751368 225.359606,43.7306817 224.020504,53.5948828 C221.922576,56.124549 219.229492,60.0612484 216.581045,62.0819876 C215.093153,63.1746836 212.474464,62.845378 210.956814,62.845378 L210.629478,62.845378 C209.549702,62.8012472 208.626013,63.6184572 208.531551,64.7014644 L207.936394,70.0901023 C207.772726,71.4372618 208.531551,71.8563781 209.78138,71.8563781 L214.899727,71.8563781 C216.809188,72.0058349 218.722977,71.62802 220.434685,70.763682 C221.786939,69.8064092 223.003308,68.6683296 224.050261,67.3808149 L227.576565,62.4262617 L227.903901,62.9202202 L230.67138,68.3088581 C232.045754,70.6892662 234.653498,72.0678782 237.381771,71.8563781 L242.827455,71.8563781 C244.092163,71.8563781 245.014656,71.4372618 245.178324,70.0901023 L245.847875,64.7014644 C246.041301,63.4141786 245.356871,62.9202202 243.943374,62.9202202 L243.928495,62.950157 Z M252.855845,0.0827143873 L219.735375,0.0827143873 C219.175248,0.0288833376 218.617297,0.205307076 218.188501,0.571835228 C217.759706,0.93836338 217.496542,1.46381615 217.458901,2.02861142 L216.78935,7.13284903 C216.625682,8.6296929 217.384506,9.06377762 218.470667,9.06377762 L229.882797,9.06377762 L229.376914,13.5543092 L223.589015,13.5543092 C219.391553,13.5698926 215.798739,16.5871567 215.033638,20.7391598 L214.944364,21.4875818 L214.438481,25.1249124 L210.763388,51.7088595 L210.183111,55.8401486 L210.093837,56.7681918 C210.004564,57.5315822 210.183111,58.1153513 210.763388,58.3698148 C211.01633,58.4596254 211.269272,58.4596254 211.596608,58.549436 L216.893502,58.549436 C217.410504,58.5957617 217.922988,58.4208593 218.305254,58.0676287 C218.687519,57.714398 218.904203,57.2155167 218.902156,56.6933496 L223.752683,22.4455618 C223.829372,21.6778287 224.473599,21.0945356 225.240575,21.0984024 L240.670012,21.0984024 C241.666899,21.188213 241.919841,21.6971399 241.845446,22.4455618 L237.381771,56.7681918 C237.218103,57.7860457 237.545439,58.4596254 238.869663,58.549436 L244.151678,58.549436 C244.66868,58.5957617 245.181164,58.4208593 245.56343,58.0676287 C245.945696,57.714398 246.162379,57.2155167 246.160332,56.6933496 L246.249606,56.2592649 L250.504976,25.1249124 L251.010859,20.9936233 L251.010859,20.7391598 C251.442348,17.026987 249.091479,13.7339305 244.479015,13.5543092 L238.527448,13.5543092 L238.527448,13.5243724 L238.274506,13.5243724 L238.76551,9.03384074 L251.516742,9.03384074 C252.068371,9.10214898 252.622749,8.93030001 253.040496,8.56150004 C253.458243,8.19270006 253.699621,7.66203052 253.703943,7.10291215 L254.373495,1.99867454 C254.760346,0.63654662 254.090795,0.0527775099 252.826087,0.0527775099 L252.855845,0.0827143873 Z M89.068725,16.547997 L100.718917,16.547997 L100.555249,17.640693 L100.391581,18.733389 C100.213034,20.0805485 100.644523,21.0085917 102.400235,21.0085917 L109.437963,21.0085917 C110.109946,21.0795234 110.781083,20.8669739 111.291494,20.4215774 C111.801906,19.9761808 112.105896,19.3378128 112.131047,18.6585468 C112.131047,17.640693 112.294715,17.4760402 112.383988,16.547997 L139.389223,16.547997 L139.210676,17.640693 L139.047008,18.6585468 C138.88334,20.1553907 139.389223,21.0085917 141.144935,21.0085917 L148.271936,21.0085917 C148.943919,21.0795234 149.615056,20.8669739 150.125468,20.4215774 C150.63588,19.9761808 150.93987,19.3378128 150.96502,18.6585468 L151.128688,17.640693 L151.039415,17.640693 L151.203083,16.547997 L166.082,16.547997 C166.459165,16.5526389 166.831839,16.4653298 167.168161,16.2935335 C167.858694,15.9658217 168.311453,15.2797135 168.343596,14.5122893 L169.191694,9.63257829 C169.355362,8.13573442 168.685811,7.61183907 167.346708,7.61183907 L152.586822,7.61183907 L152.586822,7.4322178 L153.256374,2.5225699 C153.509315,1.02572603 152.914158,0.0827143873 151.232841,0.0827143873 L144.10584,0.0827143873 C143.421104,0.0151862171 142.73985,0.241604817 142.229861,0.706206363 C141.719873,1.17080791 141.428547,1.83041301 141.427634,2.5225699 L140.758083,7.4322178 L140.758083,7.53699687 L113.752849,7.53699687 L114.4224,2.44772771 C114.586068,0.846104762 114.080185,0.0078721937 112.413746,0.0078721937 L105.361139,0.0078721937 C104.699295,-0.0458858712 104.04472,0.177402851 103.551875,0.625048948 C103.059029,1.07269505 102.77157,1.70504581 102.757329,2.37288551 L102.087778,7.28253341 L102.087778,7.53699687 L90.51198,7.53699687 C89.928068,7.45529682 89.3374185,7.63003012 88.8904155,8.01670832 C88.4434126,8.40338652 88.1831855,8.96470076 88.17599,9.5577361 L87.3278917,14.5272578 C87.104708,15.9941648 87.818896,16.5180601 89.0389672,16.5180601 L89.068725,16.547997 Z M213.35232,1.84899016 C213.530867,0.666483498 213.099378,0.0827143873 211.864428,0.0827143873 L206.493139,0.0827143873 C205.995285,0.0216670665 205.495656,0.181500471 205.124289,0.520615879 C204.752922,0.859731287 204.546548,1.34458596 204.55888,1.84899016 L198.279977,48.2511502 L195.304193,70.2248182 C195.140525,71.2426721 195.48274,71.991094 196.792085,71.991094 L202.163374,71.991094 C202.666167,72.041008 203.167104,71.8795943 203.547506,71.5450936 C203.927909,71.2105928 204.153932,70.7327672 204.172028,70.2248182 L210.629478,21.667203 L213.35232,1.84899016 Z M163.002064,25.4991233 L155.800668,25.4991233 C154.471458,25.3382586 153.218379,26.1576603 152.824885,27.4450204 L149.849102,37.6385271 C149.544186,39.0522343 148.740813,40.3070811 147.587506,41.1710787 C146.20094,41.8480256 144.660568,42.1424573 143.123831,42.0242797 L131.87537,42.0242797 L133.229351,32.5941633 L133.809629,27.9539473 C134.06257,26.4571034 133.467414,25.5140918 131.800975,25.5140918 L124.748368,25.5140918 C124.075341,25.4428708 123.403343,25.6577855 122.894745,26.1069082 C122.386146,26.5560309 122.087209,27.1985084 122.070163,27.8791051 L121.906495,28.9718011 L121.400612,32.5941633 L117.204757,63.0699045 C116.818318,65.2467093 117.299382,67.4890532 118.54386,69.3117435 C119.808568,71.0031771 122.650441,71.9312203 127.188511,71.9312203 L160.978532,71.9312203 L162.466423,62.950157 L132.857378,62.950157 C130.342841,62.950157 129.167407,61.9472716 129.509622,59.8367218 L130.595783,50.9454692 L150.310348,50.9454692 C154.178866,50.9454692 156.782677,49.8527731 158.032506,47.5775705 C159.214442,45.6712612 160.144747,43.6183139 160.799985,41.4704475 C162.287876,35.5728826 163.47819,32.9683743 164.906566,27.0708094 C165.099992,25.7835237 164.519714,25.4991233 163.002064,25.4991233 Z M188.995533,1.80408484 C189.159201,0.621578181 188.742591,0.0378090711 187.507641,0.0378090711 L182.210746,0.0378090711 C181.705049,-0.0263064497 181.196221,0.13006121 180.812458,0.467516593 C180.428695,0.804971975 180.206587,1.29134012 180.202093,1.80408484 L172.569208,58.684152 L172.40554,59.7918165 C172.152598,61.9023663 170.724222,62.9052517 168.120412,62.9052517 L166.63252,62.9052517 L165.293418,71.8863149 L168.388232,71.8863149 C172.926302,71.8863149 176.11039,71.0480824 177.791708,69.3566488 C179.445463,67.5176378 180.485976,65.2042683 180.767491,62.7405989 L186.049507,23.4185104 L188.995533,1.80408484 Z M201.240881,1.80408484 C201.404549,0.621578181 200.98794,0.0378090711 199.75299,0.0378090711 L194.39658,0.0378090711 C193.889465,-0.0260022661 193.379289,0.130016542 192.993269,0.466960615 C192.607249,0.803904688 192.381766,1.29001858 192.373047,1.80408484 L186.094144,48.2062449 L183.237392,70.1799129 C183.073724,71.1977668 183.40106,71.9461887 184.725283,71.9461887 L190.022178,71.9461887 C190.524971,71.9961026 191.025907,71.834689 191.40631,71.5001883 C191.786713,71.1656875 192.012736,70.6878619 192.030832,70.1799129 L198.324614,23.4035419 L201.240881,1.80408484 Z M112.607172,24.0022795 L105.554565,24.0022795 C103.775987,24.0715922 102.16004,25.0628544 101.284316,26.6217562 L96.3296366,33.4174274 C95.4831406,34.7858457 94.3383472,35.9426455 92.9818802,36.8002946 C91.5461608,37.4120243 90.0029899,37.7276055 88.4438105,37.7283378 L87.9379273,37.7283378 C87.3249266,37.6304884 86.6989986,37.7921115 86.2086171,38.1748691 C85.7182356,38.5576267 85.4070936,39.127415 85.3489957,39.749077 L84.590171,46.0358213 C84.4265029,47.4578229 85.2597222,47.9667499 86.5988248,47.9667499 L94.5739244,47.9667499 L92.2825711,64.9110225 L91.6130199,69.5512385 C91.4493518,70.9133664 91.8659614,71.9162518 93.6216737,71.9162518 L100.748675,71.9162518 C101.441089,72.0140059 102.14102,71.7986184 102.660588,71.3279055 C103.180155,70.8571925 103.466134,70.1793742 103.441759,69.4763963 L103.769095,67.2011936 L108.054223,35.8872198 L114.258732,26.6516931 C115.285377,24.8704489 114.452158,24.0022795 112.607172,24.0022795 Z"></path>
                </g>
            </g>
        </g>
    </g>
</svg>