<?xml version="1.0" encoding="UTF-8"?>
<svg width="32" height="32" viewBox="0 0 30 24" version="1.1" xmlns="http://www.w3.org/2000/svg" xmlns:xlink="http://www.w3.org/1999/xlink">
    <title>形状结合备份</title>
    <g id="页面-1" stroke="none" stroke-width="1" fill="none" fill-rule="evenodd">
        <g id="导航栏-收起" transform="translate(-13.000000, -36.000000)" fill="#FF4242">
            <g id="编组-38" transform="translate(13.000000, 36.000000)">
                <path d="M14.1392758,1.48887489 C14.5359427,0.309795957 14.3911592,-0.644132226 17.5704441,0.548771754 C19.4546117,1.24199907 22.0527796,2.14260207 23.01073,2.62450368 C23.5878803,1.80092593 24.3732807,1.30322427 25.787398,3.15183044 C27.3284487,5.17028717 29.3851664,7.3961196 30,8.18612224 C28.4291993,7.38821957 26.6580817,5.96621483 25.3451145,4.7298607 C24.2443639,3.70680729 24.0440472,3.81345765 23.08808,4.80096094 C20.8469123,7.14726877 16.4915102,11.7826092 13.6057589,13.8306911 C16.6759603,10.9590315 19.8750785,6.50736664 22.387963,3.29403091 L22.387963,3.29403091 L18.0900777,2.15642712 C15.6902432,1.51652498 15.89056,2.04187674 15.4482764,3.25058077 C14.3197592,6.36911617 12.9492752,12.608162 11.2634411,15.8491478 L11.263,15.848 L11.3147215,15.6780143 C11.7889024,14.0613422 12.5993343,10.404056 13.300556,6.65703395 L13.4544043,5.82367818 C13.6313742,4.8515566 13.7987855,3.88311666 13.9488757,2.95235477 C12.5407084,2.8397794 10.5216741,3.00962997 9.56570696,3.03728006 C7.87987282,3.09455525 8.20910631,3.77790753 8.52247313,5.31248765 C9.15119009,8.30462263 10.8509076,14.0163417 10.9361909,17.7846543 C10.5475175,15.8754812 9.21993293,11.8691105 7.7610428,7.80958773 L7.45759481,6.96959853 C7.35599756,6.68979631 7.25404071,6.41041177 7.15198914,6.13211538 C6.4379888,6.47181652 4.68075463,7.24009408 3.82395423,7.80889598 C2.4971036,8.71937402 2.58238697,9.03142506 4.36738782,11.1506071 C6.30907207,13.4633398 9.77990706,17.5160534 11.3784745,20.6306388 C10.2638406,19.2224591 6.75135562,15.596347 3.75255419,12.6950623 C3.21110394,13.4909899 2.35232019,15.5509218 1.96755335,16.5621252 C1.5827865,17.5733286 1.74938657,18.0414051 2.93938714,18.6951323 C5.59507174,20.1605872 11.049241,21.8808179 13.8774757,24 C11.9774414,23.1270471 5.55143838,21.1520405 1.11075294,19.49106 C-0.299397732,18.9657082 -0.212131024,17.8853796 0.515752655,15.894573 C1.08695293,14.3738179 1.91995332,12.8372628 2.51495361,11.4863582 C2.38603688,11.3579828 1.71566989,10.3053043 1.57286982,10.1492788 C0.400719267,8.78454923 1.05720291,7.88789624 2.15795344,7.12159368 C3.39952069,6.26839084 5.81323851,5.04388675 6.58475554,4.68838557 C6.52723885,4.43360972 6.32692208,3.79370758 6.28527206,3.46585649 C6.142472,2.3006026 6.49947217,1.4612248 8.55420648,1.44739975 C10.0694739,1.43357471 12.7965585,1.41777465 14.1392758,1.48887489 Z M22.9352005,10.4 C23.4381932,11.2145783 23.8593498,11.9215708 24.2585504,12.559401 C24.7755151,13.3739794 25.2206237,14.0252578 25.5659322,14.5939257 L25.5659322,14.5939257 L28.2665241,18.7302161 C28.5185715,19.3948357 28.460245,20.1318318 28.1065155,20.7520369 C27.752786,21.3722419 27.1380964,21.8152661 26.4202214,21.9673965 C25.2126397,22.2440458 24.2924824,21.8290719 23.6457775,20.7359232 C23.5113107,21.3322741 23.6033709,21.9552632 23.9052579,22.4918774 C24.1859541,23.1023686 24.6388973,23.6248585 25.2126397,24 L25.2126397,24 L20.5699371,24 C21.1451117,23.6185592 21.6062387,23.0985377 21.907259,22.4918774 C22.2365995,21.8559684 22.3383956,21.2469558 22.1946834,20.7359232 C21.5419905,21.8290719 20.6078612,22.2440458 19.4002795,21.9673965 C18.6251142,21.8343887 17.9716219,21.33466 17.661761,20.6379432 C17.3164229,20.0541412 17.2736167,19.3487455 17.5459928,18.7302161 L17.5459928,18.7302161 L20.2625527,14.5920045 C20.6078612,14.0252578 21.0529698,13.3739794 21.5839066,12.559401 C21.9870991,11.9215708 22.4322078,11.2164995 22.9352005,10.4 Z" id="形状结合备份"></path>
            </g>
        </g>
    </g>
</svg>