<?xml version="1.0" encoding="UTF-8"?>
<svg width="128" height="128" viewBox="0 0 40 40" version="1.1" xmlns="http://www.w3.org/2000/svg" xmlns:xlink="http://www.w3.org/1999/xlink">
    <title>编组 34备份</title>
    <defs>
        <linearGradient x1="100%" y1="0%" x2="0%" y2="100%" id="linearGradient-1">
            <stop stop-color="#FF1F13" offset="0%"></stop>
            <stop stop-color="#D90011" offset="100%"></stop>
        </linearGradient>
        <polygon id="path-2" points="0.404411765 0.401543596 0 0.401543596 0 0 0.808823529 0 0.808823529 2.00771798 0.404411765 2.00771798"></polygon>
        <polygon id="path-3" points="1.61764706 9.23550271 1.61764706 9.63704631 2.83088235 9.63704631 2.83088235 10.0385899 1.21323529 10.0385899 1.21323529 8.83395912 2.42647059 8.83395912 2.42647059 8.43241552 1.21323529 8.43241552 1.21323529 8.03087192 2.83088235 8.03087192 2.83088235 9.23550271"></polygon>
        <polygon id="path-4" points="0.404411765 8.43241552 0 8.43241552 0 8.03087192 0.808823529 8.03087192 0.808823529 10.0385899 0.404411765 10.0385899"></polygon>
        <polygon id="path-5" points="2.02205882 17.2663746 1.61764706 17.2663746 1.61764706 16.864831 2.42647059 16.864831 2.42647059 18.872549 2.02205882 18.872549"></polygon>
        <polygon id="path-6" points="0.404411765 17.2663746 0 17.2663746 0 16.864831 0.808823529 16.864831 0.808823529 18.872549 0.404411765 18.872549"></polygon>
        <path d="M1.97372982e-15,3.17166667 C1.97372982e-15,4.92166667 1.36666667,6.33888889 3.06111111,6.33888889 L3.06111111,6.33888889 C4.75,6.33888889 6.12222222,4.92166667 6.12222222,3.17166667 L6.12222222,3.17166667 C6.12222222,1.41666667 4.75,0 3.06111111,0 L3.06111111,0 C1.36666667,0 1.97372982e-15,1.41666667 1.97372982e-15,3.17166667" id="path-7"></path>
    </defs>
    <g id="日间" stroke="none" stroke-width="1" fill="none" fill-rule="evenodd">
        <g id="编组-34备份">
            <path d="M0,40 L40,40 L40,0 L0,0 L0,40 Z M0.555555556,39.4440429 L39.4444444,39.4440429 L39.4444444,0.555401123 L0.555555556,0.555401123 L0.555555556,39.4440429 Z" id="Fill-443备份"></path>
            <g id="编组-23备份" transform="translate(4.000000, 4.000000)">
                <path d="M24.8,0 C28.7764502,0 32,3.2235498 32,7.2 L32,24.8 C32,28.7764502 28.7764502,32 24.8,32 L7.2,32 C3.2235498,32 0,28.7764502 0,24.8 L0,7.2 C0,5.29044127 0.758569251,3.4590931 2.10883118,2.10883118 C3.4590931,0.758569251 5.29044127,0 7.2,0 L24.8,0 Z" id="路径" fill="url(#linearGradient-1)"></path>
                <g id="编组" opacity="0.4" transform="translate(1.617647, 6.470588)">
                    <polygon id="路径" fill="#FF9586" points="1.21323529 1.60617438 2.42647059 1.60617438 2.42647059 1.20463079 1.61764706 1.20463079 1.61764706 0.803087192 2.42647059 0.803087192 2.42647059 0.401543596 1.21323529 0.401543596 1.21323529 0 2.83088235 0 2.83088235 2.00771798 1.21323529 2.00771798"></polygon>
                    <g id="路径">
                        <use fill="#D8D8D8" xlink:href="#path-2"></use>
                        <use fill="#FF9586" xlink:href="#path-2"></use>
                    </g>
                    <g id="路径">
                        <use fill="#D8D8D8" xlink:href="#path-3"></use>
                        <use fill="#FF9586" xlink:href="#path-3"></use>
                    </g>
                    <g id="路径">
                        <use fill="#D8D8D8" xlink:href="#path-4"></use>
                        <use fill="#FF9586" xlink:href="#path-4"></use>
                    </g>
                    <g id="路径">
                        <use fill="#D8D8D8" xlink:href="#path-5"></use>
                        <use fill="#FF9586" xlink:href="#path-5"></use>
                    </g>
                    <g id="路径">
                        <use fill="#D8D8D8" xlink:href="#path-6"></use>
                        <use fill="#FF9586" xlink:href="#path-6"></use>
                    </g>
                    <path d="M4.85294118,16.864831 L4.85294118,18.872549 L3.23529412,18.872549 L3.23529412,16.864831 L4.85294118,16.864831 Z M4.44852941,17.2663746 L3.63970588,17.2663746 L3.63970588,18.4710054 L4.44852941,18.4710054 L4.44852941,17.2663746 Z" id="形状结合" fill="#FF9586"></path>
                    <path d="M4.85294118,0 L4.85294118,2.00771798 L3.23529412,2.00771798 L3.23529412,0 L4.85294118,0 Z M4.44852941,0.401543596 L3.63970588,0.401543596 L3.63970588,1.60617438 L4.44852941,1.60617438 L4.44852941,0.401543596 Z" id="形状结合" fill="#FF9586"></path>
                    <path d="M4.85294118,8.03087192 L4.85294118,10.0385899 L3.23529412,10.0385899 L3.23529412,8.03087192 L4.85294118,8.03087192 Z M4.44852941,8.43241552 L3.63970588,8.43241552 L3.63970588,9.63704631 L4.44852941,9.63704631 L4.44852941,8.43241552 Z" id="形状结合" fill="#FF9586"></path>
                </g>
                <polygon id="路径" fill-opacity="0.2" fill="#FF9586" points="10 0 10.5392157 0 10.5392157 32 10 32"></polygon>
                <polygon id="路径" fill-opacity="0.2" fill="#FF9586" points="0 7.54901961 32 7.54901961 32 8.08823529 0 8.08823529"></polygon>
                <polygon id="路径" fill-opacity="0.2" fill="#FF9586" points="0 16 32 16 32 16.5392157 0 16.5392157"></polygon>
                <polygon id="路径" fill-opacity="0.2" fill="#FF9586" points="0 24 32 24 32 24.5392157 0 24.5392157"></polygon>
                <path d="M8.06617647,18.2357501 L8.06617647,19.0383037 L9.27941176,19.0383037 L9.27941176,23.0510716 L8.06617647,23.0510716 L8.06617647,24.254902 L7.25735294,24.254902 L7.25735294,23.0510716 L6.04411765,23.0510716 L6.04411765,19.0383037 L7.25735294,19.0383037 L7.25735294,18.2357501 L8.06617647,18.2357501 Z M4.02205882,18.6370269 L4.02205882,19.8408573 L5.23529412,19.8408573 L5.23529412,23.0510716 L2,23.0510716 L2,19.8408573 L3.21323529,19.8408573 L3.21323529,18.6370269 L4.02205882,18.6370269 Z M8.47058824,19.8408573 L6.85294118,19.8408573 L6.85294118,22.248518 L8.47058824,22.248518 L8.47058824,19.8408573 Z M16.1544118,15.4268126 L16.1544118,16.630643 L17.3676471,16.630643 L17.3676471,21.4459644 L14.1323529,21.4459644 L14.1323529,16.630643 L15.3455882,16.630643 L15.3455882,15.4268126 L16.1544118,15.4268126 Z M28.2867647,7 L28.2867647,8.20383037 L29.5,8.20383037 L29.5,19.8408573 L28.2867647,19.8408573 L28.2867647,21.0446876 L27.4779412,21.0446876 L27.4779412,19.8408573 L26.2647059,19.8408573 L26.2647059,8.20383037 L27.4779412,8.20383037 L27.4779412,7 L28.2867647,7 Z M12.1102941,14.2229822 L12.1102941,15.4268126 L13.3235294,15.4268126 L13.3235294,19.4395805 L10.0882353,19.4395805 L10.0882353,15.4268126 L11.3014706,15.4268126 L11.3014706,14.2229822 L12.1102941,14.2229822 Z M28.6911765,9.00638395 L27.0735294,9.00638395 L27.0735294,19.0383037 L28.6911765,19.0383037 L28.6911765,9.00638395 Z M12.5147059,16.2293662 L10.8970588,16.2293662 L10.8970588,18.6370269 L12.5147059,18.6370269 L12.5147059,16.2293662 Z M20.1985294,13.0191518 L20.1985294,13.8217054 L21.4117647,13.8217054 L21.4117647,17.0319197 L20.1985294,17.0319197 L20.1985294,18.2357501 L19.3897059,18.2357501 L19.3897059,17.0319197 L18.1764706,17.0319197 L18.1764706,13.8217054 L19.3897059,13.8217054 L19.3897059,13.0191518 L20.1985294,13.0191518 Z M25.4558824,11.4140447 L25.4558824,16.2293662 L24.2426471,16.2293662 L24.2426471,17.4331965 L23.4338235,17.4331965 L23.4338235,16.2293662 L22.2205882,16.2293662 L22.2205882,11.4140447 L25.4558824,11.4140447 Z M20.6029412,14.624259 L18.9852941,14.624259 L18.9852941,16.2293662 L20.6029412,16.2293662 L20.6029412,14.624259 Z" id="形状结合" fill="#FFD8D8"></path>
                <g id="编组备份-22" transform="translate(10.877778, 13.652778)">
                    <mask id="mask-8" fill="white">
                        <use xlink:href="#path-7"></use>
                    </mask>
                    <g id="Clip-504"></g>
                </g>
            </g>
        </g>
    </g>
</svg>